<svg xmlns="http://www.w3.org/2000/svg" viewBox="0 0 64 64">
  <rect x="1" y="1" width="62" height="62" rx="18" fill="#2d5a27"/>
  <g transform="translate(-2 -2) scale(1.08)">
    <path fill="#ffffff" d="M32 32.6 22 23.7c-3.1-2.8-3.6-7.3-1-10.1 2.5-2.7 6.9-2.4 9.3.4l1.7 2 1.7-2c2.4-2.8 6.8-3.1 9.3-.4 2.6 2.8 2.1 7.3-1 10.1L32 32.6z"/>
    <path fill="#ffffff" d="M13.7 43.4c3-3.5 7.1-5.4 11.7-5.4h10.1c1.9 0 3.2 1.2 3.2 2.9 0 1.8-1.3 3-3.2 3h-8l4.7 3.5h10.4c2.5 0 4.2-.8 5.8-2.8l3.4-4.2c1.1-1.4 3.1-1.6 4.4-.5 1.3 1 1.5 2.9.4 4.3l-4.8 5.9c-2.4 3-5.6 4.5-9.4 4.5H27.9c-2.5 0-4.8-.7-6.8-2.1l-5.2 4.4-8.4-9.8 6.2-3.7z"/>
  </g>
</svg>
